<mxfile host="Electron" modified="2024-04-13T20:14:16.054Z" agent="Mozilla/5.0 (Windows NT 10.0; Win64; x64) AppleWebKit/537.36 (KHTML, like Gecko) draw.io/24.1.0 Chrome/120.0.6099.109 Electron/28.1.0 Safari/537.36" etag="T5ykD_fpC9dgIQC8eVLl" version="24.1.0" type="device">
  <diagram name="Página-1" id="L314dxyPoQXHvJv8pYbW">
    <mxGraphModel dx="1050" dy="669" grid="1" gridSize="10" guides="1" tooltips="1" connect="1" arrows="1" fold="1" page="1" pageScale="1" pageWidth="827" pageHeight="1169" math="0" shadow="0">
      <root>
        <mxCell id="0" />
        <mxCell id="1" parent="0" />
        <mxCell id="cGOFUa8Rdf4IuGASdnf6-1" value="+-------------------+             +-------------------+             +------------------+&#xa;|     Usuario       |             |      Página       |             |   Base de Datos  |&#xa;|                   |             |      Web          |             |                  |&#xa;+--------+----------+             +---------+---------+             +-------+----------+&#xa;         |                                 |                                 |&#xa;         |     1. Ingresar credenciales    |                                 |&#xa;         +--------------------------------&gt;|                                 |&#xa;         |                                 |    2. Validar credenciales     |&#xa;         |                                 +--------------------------------&gt;|&#xa;         |                                 |                                 |&#xa;         |     3. Solicitar archivo        |                                 |&#xa;         +--------------------------------&gt;|    4. Buscar archivo          |&#xa;         |                                 +--------------------------------&gt;|&#xa;         |                                 |                                 |&#xa;         |     5. Seleccionar archivo      |                                 |&#xa;         +--------------------------------&gt;|    6. Recuperar archivo       |&#xa;         |                                 +--------------------------------&gt;|&#xa;         |                                 |                                 |&#xa;         |     7. Enviar archivo           |                                 |&#xa;         +--------------------------------&gt;|    8. Encriptar archivo       |&#xa;         |                                 +--------------------------------&gt;|&#xa;         |                                 |                                 |&#xa;         |                                 |    9. Almacenar archivo       |&#xa;         |                                 +--------------------------------&gt;|&#xa;         |                                 |                                 |&#xa;         |     10. Confirmación            |                                 |&#xa;         +&lt;--------------------------------|   11. Confirmación" style="text;whiteSpace=wrap;" vertex="1" parent="1">
          <mxGeometry x="260" y="260" width="400" height="410" as="geometry" />
        </mxCell>
      </root>
    </mxGraphModel>
  </diagram>
</mxfile>
